<?xml version="1.0" encoding="utf-8"?>
<!-- Generator: Adobe Illustrator 16.0.4, SVG Export Plug-In . SVG Version: 6.00 Build 0)  -->
<!DOCTYPE svg PUBLIC "-//W3C//DTD SVG 1.1//EN" "http://www.w3.org/Graphics/SVG/1.1/DTD/svg11.dtd">
<svg version="1.1" id="Layer_1" xmlns="http://www.w3.org/2000/svg" xmlns:xlink="http://www.w3.org/1999/xlink" x="0px" y="0px"
	 width="1385.797px" height="1750.083px" viewBox="0 0 1385.797 1750.083" enable-background="new 0 0 1385.797 1750.083"
	 xml:space="preserve">
<polygon fill="#E0E0E0" points="519.86,1349.971 606.496,1299.989 693.079,1349.971 606.533,1400.011 "/>
<polygon fill="#C1C1C0" points="433.229,1099.847 433.229,1199.857 519.829,1149.875 519.812,1049.857 "/>
<path fill="#C1C1C0" d="M810.124,518.364"/>
<polygon fill="#E0E0E0" points="866.495,1150.09 953.131,1100.108 1039.713,1150.09 953.167,1200.13 "/>
<polygon fill="#C1C1C0" points="779.864,899.966 779.864,999.977 866.463,949.994 866.447,849.977 "/>
<g>
	<polygon fill="#FFF2BD" points="346.67,1550.08 260.087,1500.1 86.887,1600.091 173.559,1650.131 	"/>
	<polygon fill="#FFF2BD" points="606.521,500.085 693.157,450.105 779.739,500.085 693.193,550.126 	"/>
	<polygon fill="#FFF2BD" points="692.994,450.223 606.411,400.242 433.157,500.213 519.829,550.253 	"/>
	<polygon fill="#FFF2BD" points="346.617,849.919 260.034,799.938 86.833,899.93 173.505,949.97 	"/>
	<polygon fill="#FFF2BD" points="692.994,249.992 606.411,200.011 433.157,299.982 519.829,350.022 	"/>
	<polygon fill="#FFF2BD" points="346.625,449.921 260.042,399.94 86.789,499.912 173.461,549.952 	"/>
	<polygon fill="#FFF2BD" points="433.251,1399.981 519.887,1350 606.47,1399.981 519.923,1450.021 	"/>
	<polygon fill="#FFF2BD" points="433.211,999.877 519.847,949.896 606.43,999.877 519.883,1049.917 	"/>
	<polygon fill="#FFF2BD" points="1385.797,950 1299.214,900.02 1125.944,999.989 1212.617,1050.028 	"/>
	<polygon fill="#FFF2BD" points="0,650.003 86.636,600.022 173.219,650.003 86.672,700.044 	"/>
	<polygon fill="#FFF2BD" points="346.687,450.03 433.322,400.049 519.905,450.03 433.359,500.07 	"/>
	<polygon fill="#FFF2BD" points="0,1350.094 86.636,1300.113 173.219,1350.094 86.672,1400.135 	"/>
	<polygon fill="#FFF2BD" points="346.458,1150.042 433.094,1100.061 519.677,1150.042 433.13,1200.082 	"/>
	<polygon fill="#FFF2BD" points="1126.04,299.578 1212.674,249.597 1299.257,299.578 1212.711,349.619 	"/>
	<polygon fill="#FFF2BD" points="692.985,650.029 606.402,600.048 433.148,700.019 519.82,750.059 	"/>
	<polygon fill="#FFF2BD" points="952.949,300.075 1039.584,250.094 1126.167,300.075 1039.622,350.116 	"/>
	<polygon fill="#FFF2BD" points="1039.421,250.212 952.838,200.231 779.584,300.202 866.256,350.242 	"/>
	<polygon fill="#FFF2BD" points="1039.421,49.981 952.838,0 779.584,99.971 866.256,150.011 	"/>
	<polygon fill="#FFF2BD" points="693.114,250.019 779.75,200.038 866.333,250.019 779.787,300.059 	"/>
	<polygon fill="#FFF2BD" points="1039.413,450.018 952.83,400.037 779.576,500.008 866.249,550.048 	"/>
	<polygon fill="#FFF2BD" points="346.67,1149.978 260.087,1099.997 86.887,1199.988 173.559,1250.028 	"/>
	<polygon fill="#FFF2BD" points="519.77,1049.828 606.406,999.847 692.989,1049.828 606.442,1099.868 	"/>
	<polygon fill="#FFF2BD" points="779.885,1200.101 866.522,1150.119 953.104,1200.101 866.558,1250.141 	"/>
	<polygon fill="#FFF2BD" points="779.846,799.996 866.481,750.015 953.065,799.996 866.518,850.036 	"/>
	<polygon fill="#FFF2BD" points="693.093,950.161 779.729,900.18 866.311,950.161 779.765,1000.201 	"/>
	<polygon fill="#FFF2BD" points="866.073,850.08 952.709,800.099 1039.292,850.08 952.746,900.12 	"/>
	<polygon fill="#FFF2BD" points="1039.262,649.5 1125.898,599.519 1212.481,649.5 1125.934,699.541 	"/>
</g>
<g>
	<polygon fill="#ED2C26" points="519.979,1049.99 520.015,1350.943 606.615,1400.943 606.615,1300.932 606.498,1300.864 
		606.615,1099.979 	"/>
	<polygon fill="#ED2C26" points="86.779,1400.08 0.143,1350.091 0.179,1650.091 86.779,1700.092 86.779,1700.047 173.533,1750.083 
		173.568,1650.012 	"/>
	<polygon fill="#ED2C26" points="433.193,600.213 519.793,650.213 519.793,550.202 433.22,500.249 433.22,499.989 346.584,450 
		346.62,550 433.193,599.984 	"/>
	<polygon fill="#ED2C26" points="606.454,600.056 693.054,650.056 693.054,550.044 606.418,500.056 	"/>
	<polygon fill="#ED2C26" points="86.779,1000.001 86.779,999.917 173.479,1049.922 173.514,949.851 86.779,699.989 0.143,650 
		0.179,950 	"/>
	<polygon fill="#ED2C26" points="433.278,1099.877 519.878,1149.877 519.878,1049.865 433.243,999.877 	"/>
	<polygon fill="#ED2C26" points="433.296,1400.012 433.179,1399.944 433.296,1199.059 346.66,1149.07 346.696,1450.023 
		433.224,1499.982 433.224,1499.999 519.824,1550.001 519.824,1449.989 433.296,1400.061 	"/>
	<polygon fill="#ED2C26" points="173.424,549.9 86.789,499.912 86.609,599.921 173.39,649.971 	"/>
	<polygon fill="#ED2C26" points="519.793,449.982 519.793,349.971 433.157,299.982 433.193,399.982 	"/>
	<polygon fill="#ED2C26" points="1212.573,349.537 1125.936,299.548 1125.972,399.548 1212.573,449.549 	"/>
	<polygon fill="#ED2C26" points="433.184,800.019 519.784,850.019 519.784,750.008 433.148,700.019 	"/>
	<polygon fill="#ED2C26" points="1039.482,350.034 952.846,300.045 952.881,400.045 1039.482,450.045 	"/>
	<polygon fill="#ED2C26" points="779.621,399.974 779.621,400.202 866.221,450.202 866.221,350.191 779.647,300.238 
		779.647,299.978 693.012,249.989 693.047,349.989 	"/>
	<polygon fill="#ED2C26" points="866.221,249.971 866.221,149.96 779.584,99.971 779.621,199.971 	"/>
	<polygon fill="#ED2C26" points="779.612,600.008 866.211,650.008 866.211,549.997 779.577,500.008 	"/>
	<polygon fill="#ED2C26" points="86.753,1299.93 173.533,1349.98 173.568,1249.909 86.932,1199.92 	"/>
	<polygon fill="#ED2C26" points="866.513,850.215 866.513,849.984 779.877,799.996 779.913,899.996 866.125,949.772 
		866.149,1150.938 952.75,1200.938 952.75,1100.926 952.633,1100.858 952.75,899.973 	"/>
	<polygon fill="#ED2C26" points="779.93,1200.131 779.814,1200.063 779.93,999.178 693.295,949.189 693.331,1250.143 
		779.859,1300.102 779.859,1300.118 866.459,1350.12 866.459,1250.108 779.93,1200.18 	"/>
	<polygon fill="#ED2C26" points="1125.987,999.087 1126.022,1099.087 1212.622,1149.089 1212.622,1049.077 	"/>
	<polygon fill="#ED2C26" points="1039.338,1049.005 1125.938,1099.007 1125.938,699.393 1039.303,649.405 	"/>
</g>
<g>
	<polygon fill="#FEBE3D" points="346.696,1650.174 346.679,1550.156 173.478,1650.041 173.478,1750.053 	"/>
	<polygon fill="#FEBE3D" points="693.019,550.025 693.019,650.035 779.618,600.052 779.602,500.036 	"/>
	<polygon fill="#FEBE3D" points="693.011,350.009 692.994,249.992 519.792,349.971 519.792,449.982 	"/>
	<polygon fill="#FEBE3D" points="433.184,499.968 433.184,599.979 519.784,549.996 519.767,449.979 	"/>
	<polygon fill="#FEBE3D" points="346.643,549.939 346.625,449.921 173.424,549.9 173.424,649.912 	"/>
	<polygon fill="#FEBE3D" points="173.39,649.971 86.807,699.96 86.78,999.975 173.38,949.993 	"/>
	<polygon fill="#FEBE3D" points="346.643,950.013 346.625,849.995 173.424,949.88 173.424,1049.892 	"/>
	<polygon fill="#FEBE3D" points="519.843,1149.974 433.26,1199.963 433.229,1500.023 519.829,1450.041 	"/>
	<polygon fill="#FEBE3D" points="519.847,1449.988 519.847,1550 606.447,1500.018 606.43,1400 	"/>
	<polygon fill="#FEBE3D" points="1212.581,1049.978 1212.581,1149.08 1385.784,1050 1385.797,950 	"/>
	<polygon fill="#FEBE3D" points="173.39,1350.062 86.807,1400.051 86.78,1700.065 173.38,1650.084 	"/>
	<polygon fill="#FEBE3D" points="1212.537,349.517 1212.537,449.527 1299.136,399.544 1299.12,299.528 	"/>
	<polygon fill="#FEBE3D" points="693.011,550.24 692.994,450.223 519.792,550.202 519.792,650.213 	"/>
	<polygon fill="#FEBE3D" points="693.002,750.046 692.985,650.029 519.784,750.008 519.784,850.019 	"/>
	<polygon fill="#FEBE3D" points="1039.446,350.014 1039.446,450.024 1126.045,400.042 1126.03,300.025 	"/>
	<polygon fill="#FEBE3D" points="1039.438,149.999 1039.421,49.981 866.22,149.96 866.22,249.971 	"/>
	<polygon fill="#FEBE3D" points="779.612,299.958 779.612,399.968 866.211,349.985 866.195,249.969 	"/>
	<polygon fill="#FEBE3D" points="1039.438,350.229 1039.421,250.212 866.22,350.191 866.22,450.202 	"/>
	<polygon fill="#FEBE3D" points="1039.43,550.036 1039.413,450.018 866.211,549.997 866.211,650.008 	"/>
	<polygon fill="#FEBE3D" points="693.162,1049.857 606.579,1099.847 606.548,1399.907 693.148,1349.925 	"/>
	<polygon fill="#FEBE3D" points="346.696,1250.071 346.679,1150.054 173.478,1249.938 173.478,1349.95 	"/>
	<polygon fill="#FEBE3D" points="519.847,1049.866 519.847,1149.877 606.447,1099.895 606.43,999.877 	"/>
	<polygon fill="#FEBE3D" points="866.478,950.093 779.895,1000.082 779.864,1300.143 866.463,1250.16 	"/>
	<polygon fill="#FEBE3D" points="866.481,1250.107 866.481,1350.119 953.082,1300.137 953.065,1200.119 	"/>
	<polygon fill="#FEBE3D" points="1039.422,849.981 952.838,899.971 952.807,1200.031 1039.408,1150.049 	"/>
	<polygon fill="#FEBE3D" points="866.131,849.985 866.131,949.996 952.732,900.014 952.715,799.996 	"/>
	<polygon fill="#FEBE3D" points="1212.611,649.402 1126.028,699.391 1126.003,1100.461 1212.604,1050.479 	"/>
</g>
</svg>
